<mxfile host="app.diagrams.net" modified="2021-05-18T15:46:39.579Z" agent="5.0 (Windows)" etag="XwmouLEighlLpEClZQtS" version="14.6.13" type="github">
  <diagram id="K3MPsnKXCPBBOhKjyE_E" name="Page-1">
    <mxGraphModel dx="1422" dy="791" grid="1" gridSize="10" guides="1" tooltips="1" connect="1" arrows="1" fold="1" page="1" pageScale="1" pageWidth="1100" pageHeight="850" math="0" shadow="0">
      <root>
        <mxCell id="0" />
        <mxCell id="1" parent="0" />
        <mxCell id="zprhe3EmomJMRAkyWW9E-1" value="Medlem" style="shape=umlActor;verticalLabelPosition=bottom;verticalAlign=top;html=1;" parent="1" vertex="1">
          <mxGeometry x="110" y="140" width="30" height="60" as="geometry" />
        </mxCell>
        <mxCell id="zprhe3EmomJMRAkyWW9E-3" value="&lt;div&gt;Frivillig&lt;/div&gt;" style="shape=umlActor;verticalLabelPosition=bottom;verticalAlign=top;html=1;outlineConnect=0;" parent="1" vertex="1">
          <mxGeometry x="860" y="140" width="30" height="60" as="geometry" />
        </mxCell>
        <mxCell id="zprhe3EmomJMRAkyWW9E-4" value="&lt;div&gt;Administrator&lt;/div&gt;" style="shape=umlActor;verticalLabelPosition=bottom;verticalAlign=top;html=1;outlineConnect=0;" parent="1" vertex="1">
          <mxGeometry x="860" y="480" width="30" height="60" as="geometry" />
        </mxCell>
        <mxCell id="zprhe3EmomJMRAkyWW9E-5" value="&lt;div&gt;SÃ¸kende&lt;/div&gt;&lt;div&gt;&lt;br&gt;&lt;/div&gt;" style="shape=umlActor;verticalLabelPosition=bottom;verticalAlign=top;html=1;outlineConnect=0;" parent="1" vertex="1">
          <mxGeometry x="120" y="490" width="30" height="60" as="geometry" />
        </mxCell>
        <mxCell id="zprhe3EmomJMRAkyWW9E-10" value="Siste nytt" style="ellipse;whiteSpace=wrap;html=1;" parent="1" vertex="1">
          <mxGeometry x="470" y="20" width="120" height="80" as="geometry" />
        </mxCell>
        <mxCell id="zprhe3EmomJMRAkyWW9E-11" value="Kalender" style="ellipse;whiteSpace=wrap;html=1;" parent="1" vertex="1">
          <mxGeometry x="480" y="150" width="120" height="80" as="geometry" />
        </mxCell>
        <mxCell id="zprhe3EmomJMRAkyWW9E-14" value="Lese" style="endArrow=classic;html=1;" parent="1" source="zprhe3EmomJMRAkyWW9E-1" target="zprhe3EmomJMRAkyWW9E-10" edge="1">
          <mxGeometry width="50" height="50" relative="1" as="geometry">
            <mxPoint x="520" y="460" as="sourcePoint" />
            <mxPoint x="570" y="410" as="targetPoint" />
          </mxGeometry>
        </mxCell>
        <mxCell id="zprhe3EmomJMRAkyWW9E-17" value="Lese" style="endArrow=classic;html=1;exitX=0.5;exitY=0.5;exitDx=0;exitDy=0;exitPerimeter=0;entryX=0.083;entryY=0.813;entryDx=0;entryDy=0;entryPerimeter=0;" parent="1" source="zprhe3EmomJMRAkyWW9E-5" target="zprhe3EmomJMRAkyWW9E-10" edge="1">
          <mxGeometry width="50" height="50" relative="1" as="geometry">
            <mxPoint x="520" y="460" as="sourcePoint" />
            <mxPoint x="570" y="410" as="targetPoint" />
          </mxGeometry>
        </mxCell>
        <mxCell id="zprhe3EmomJMRAkyWW9E-18" value="Se" style="endArrow=classic;html=1;exitX=0.5;exitY=0.5;exitDx=0;exitDy=0;exitPerimeter=0;entryX=0;entryY=1;entryDx=0;entryDy=0;" parent="1" source="zprhe3EmomJMRAkyWW9E-5" target="zprhe3EmomJMRAkyWW9E-11" edge="1">
          <mxGeometry width="50" height="50" relative="1" as="geometry">
            <mxPoint x="520" y="460" as="sourcePoint" />
            <mxPoint x="570" y="410" as="targetPoint" />
          </mxGeometry>
        </mxCell>
        <mxCell id="zprhe3EmomJMRAkyWW9E-19" value="Legge ut" style="endArrow=classic;html=1;" parent="1" source="zprhe3EmomJMRAkyWW9E-3" target="zprhe3EmomJMRAkyWW9E-10" edge="1">
          <mxGeometry width="50" height="50" relative="1" as="geometry">
            <mxPoint x="520" y="460" as="sourcePoint" />
            <mxPoint x="570" y="410" as="targetPoint" />
          </mxGeometry>
        </mxCell>
        <mxCell id="zprhe3EmomJMRAkyWW9E-20" value="Legge ut" style="endArrow=classic;html=1;entryX=0.975;entryY=0.675;entryDx=0;entryDy=0;entryPerimeter=0;exitX=0.25;exitY=0.1;exitDx=0;exitDy=0;exitPerimeter=0;" parent="1" target="zprhe3EmomJMRAkyWW9E-10" edge="1" source="zprhe3EmomJMRAkyWW9E-4">
          <mxGeometry width="50" height="50" relative="1" as="geometry">
            <mxPoint x="860" y="480" as="sourcePoint" />
            <mxPoint x="570" y="410" as="targetPoint" />
          </mxGeometry>
        </mxCell>
        <mxCell id="zprhe3EmomJMRAkyWW9E-21" value="Se / abonnere" style="endArrow=classic;startArrow=classic;html=1;" parent="1" source="zprhe3EmomJMRAkyWW9E-1" target="zprhe3EmomJMRAkyWW9E-11" edge="1">
          <mxGeometry width="50" height="50" relative="1" as="geometry">
            <mxPoint x="520" y="460" as="sourcePoint" />
            <mxPoint x="570" y="410" as="targetPoint" />
          </mxGeometry>
        </mxCell>
        <mxCell id="zprhe3EmomJMRAkyWW9E-22" value="Om oss" style="ellipse;whiteSpace=wrap;html=1;" parent="1" vertex="1">
          <mxGeometry x="500" y="290" width="120" height="80" as="geometry" />
        </mxCell>
        <mxCell id="zprhe3EmomJMRAkyWW9E-23" value="Lese" style="endArrow=classic;html=1;" parent="1" source="zprhe3EmomJMRAkyWW9E-1" target="zprhe3EmomJMRAkyWW9E-22" edge="1">
          <mxGeometry width="50" height="50" relative="1" as="geometry">
            <mxPoint x="520" y="460" as="sourcePoint" />
            <mxPoint x="500" y="410" as="targetPoint" />
          </mxGeometry>
        </mxCell>
        <mxCell id="zprhe3EmomJMRAkyWW9E-24" value="Lese" style="endArrow=classic;html=1;entryX=0.058;entryY=0.8;entryDx=0;entryDy=0;entryPerimeter=0;" parent="1" source="zprhe3EmomJMRAkyWW9E-5" target="zprhe3EmomJMRAkyWW9E-22" edge="1">
          <mxGeometry width="50" height="50" relative="1" as="geometry">
            <mxPoint x="520" y="460" as="sourcePoint" />
            <mxPoint x="570" y="410" as="targetPoint" />
          </mxGeometry>
        </mxCell>
        <mxCell id="zprhe3EmomJMRAkyWW9E-25" value="Redigere" style="endArrow=classic;html=1;" parent="1" source="zprhe3EmomJMRAkyWW9E-3" target="zprhe3EmomJMRAkyWW9E-11" edge="1">
          <mxGeometry width="50" height="50" relative="1" as="geometry">
            <mxPoint x="520" y="460" as="sourcePoint" />
            <mxPoint x="580" y="350" as="targetPoint" />
          </mxGeometry>
        </mxCell>
        <mxCell id="zprhe3EmomJMRAkyWW9E-26" value="Redigere" style="endArrow=classic;html=1;entryX=0.817;entryY=0.938;entryDx=0;entryDy=0;entryPerimeter=0;" parent="1" source="zprhe3EmomJMRAkyWW9E-4" target="zprhe3EmomJMRAkyWW9E-11" edge="1">
          <mxGeometry width="50" height="50" relative="1" as="geometry">
            <mxPoint x="520" y="460" as="sourcePoint" />
            <mxPoint x="570" y="410" as="targetPoint" />
          </mxGeometry>
        </mxCell>
        <mxCell id="zprhe3EmomJMRAkyWW9E-27" value="Logge inn" style="ellipse;whiteSpace=wrap;html=1;" parent="1" vertex="1">
          <mxGeometry x="960" y="530" width="120" height="80" as="geometry" />
        </mxCell>
        <mxCell id="zprhe3EmomJMRAkyWW9E-28" value="" style="endArrow=classic;html=1;entryX=0.65;entryY=0.038;entryDx=0;entryDy=0;entryPerimeter=0;" parent="1" source="zprhe3EmomJMRAkyWW9E-3" target="zprhe3EmomJMRAkyWW9E-27" edge="1">
          <mxGeometry width="50" height="50" relative="1" as="geometry">
            <mxPoint x="520" y="460" as="sourcePoint" />
            <mxPoint x="570" y="410" as="targetPoint" />
          </mxGeometry>
        </mxCell>
        <mxCell id="zprhe3EmomJMRAkyWW9E-29" value="&lt;div&gt;&lt;br&gt;&lt;/div&gt;&lt;div&gt;&lt;br&gt;&lt;/div&gt;" style="endArrow=classic;html=1;entryX=0;entryY=0;entryDx=0;entryDy=0;" parent="1" source="zprhe3EmomJMRAkyWW9E-4" target="zprhe3EmomJMRAkyWW9E-27" edge="1">
          <mxGeometry width="50" height="50" relative="1" as="geometry">
            <mxPoint x="520" y="460" as="sourcePoint" />
            <mxPoint x="570" y="410" as="targetPoint" />
          </mxGeometry>
        </mxCell>
        <mxCell id="zprhe3EmomJMRAkyWW9E-30" value="Legge til / fjerene frivillige" style="ellipse;whiteSpace=wrap;html=1;" parent="1" vertex="1">
          <mxGeometry x="870" y="690" width="120" height="80" as="geometry" />
        </mxCell>
        <mxCell id="zprhe3EmomJMRAkyWW9E-31" value="" style="endArrow=classic;html=1;entryX=0.5;entryY=0;entryDx=0;entryDy=0;" parent="1" source="zprhe3EmomJMRAkyWW9E-4" target="zprhe3EmomJMRAkyWW9E-30" edge="1">
          <mxGeometry width="50" height="50" relative="1" as="geometry">
            <mxPoint x="520" y="580" as="sourcePoint" />
            <mxPoint x="570" y="530" as="targetPoint" />
          </mxGeometry>
        </mxCell>
        <mxCell id="zprhe3EmomJMRAkyWW9E-32" value="Kontakt info" style="ellipse;whiteSpace=wrap;html=1;" parent="1" vertex="1">
          <mxGeometry x="490" y="580" width="120" height="80" as="geometry" />
        </mxCell>
        <mxCell id="zprhe3EmomJMRAkyWW9E-33" value="Se" style="endArrow=classic;html=1;entryX=0;entryY=0;entryDx=0;entryDy=0;" parent="1" source="zprhe3EmomJMRAkyWW9E-1" target="zprhe3EmomJMRAkyWW9E-32" edge="1">
          <mxGeometry width="50" height="50" relative="1" as="geometry">
            <mxPoint x="520" y="580" as="sourcePoint" />
            <mxPoint x="570" y="530" as="targetPoint" />
          </mxGeometry>
        </mxCell>
        <mxCell id="zprhe3EmomJMRAkyWW9E-34" value="" style="endArrow=classic;html=1;entryX=0;entryY=0.588;entryDx=0;entryDy=0;entryPerimeter=0;" parent="1" source="zprhe3EmomJMRAkyWW9E-5" target="zprhe3EmomJMRAkyWW9E-32" edge="1">
          <mxGeometry width="50" height="50" relative="1" as="geometry">
            <mxPoint x="520" y="580" as="sourcePoint" />
            <mxPoint x="570" y="530" as="targetPoint" />
          </mxGeometry>
        </mxCell>
        <mxCell id="zprhe3EmomJMRAkyWW9E-35" value="Redigere" style="endArrow=classic;html=1;exitX=0.667;exitY=0.667;exitDx=0;exitDy=0;exitPerimeter=0;entryX=0.975;entryY=0.363;entryDx=0;entryDy=0;entryPerimeter=0;" parent="1" source="zprhe3EmomJMRAkyWW9E-4" target="zprhe3EmomJMRAkyWW9E-32" edge="1">
          <mxGeometry width="50" height="50" relative="1" as="geometry">
            <mxPoint x="520" y="580" as="sourcePoint" />
            <mxPoint x="570" y="530" as="targetPoint" />
          </mxGeometry>
        </mxCell>
        <mxCell id="zprhe3EmomJMRAkyWW9E-36" value="Redigere" style="endArrow=classic;html=1;exitX=0.5;exitY=0.5;exitDx=0;exitDy=0;exitPerimeter=0;entryX=0.992;entryY=0.613;entryDx=0;entryDy=0;entryPerimeter=0;" parent="1" source="zprhe3EmomJMRAkyWW9E-4" target="zprhe3EmomJMRAkyWW9E-22" edge="1">
          <mxGeometry width="50" height="50" relative="1" as="geometry">
            <mxPoint x="520" y="580" as="sourcePoint" />
            <mxPoint x="570" y="530" as="targetPoint" />
          </mxGeometry>
        </mxCell>
        <mxCell id="1y4Z22NVoQJXuxaL5ozE-3" value="VÃ¥rt arbeid" style="ellipse;whiteSpace=wrap;html=1;" vertex="1" parent="1">
          <mxGeometry x="480" y="460" width="120" height="80" as="geometry" />
        </mxCell>
        <mxCell id="1y4Z22NVoQJXuxaL5ozE-4" value="Lese" style="endArrow=classic;html=1;exitX=0.7;exitY=0.817;exitDx=0;exitDy=0;exitPerimeter=0;entryX=0.5;entryY=0;entryDx=0;entryDy=0;" edge="1" parent="1" source="zprhe3EmomJMRAkyWW9E-1" target="1y4Z22NVoQJXuxaL5ozE-3">
          <mxGeometry width="50" height="50" relative="1" as="geometry">
            <mxPoint x="520" y="490" as="sourcePoint" />
            <mxPoint x="570" y="440" as="targetPoint" />
          </mxGeometry>
        </mxCell>
        <mxCell id="1y4Z22NVoQJXuxaL5ozE-5" value="Lese" style="endArrow=classic;html=1;entryX=0;entryY=0;entryDx=0;entryDy=0;" edge="1" parent="1" source="zprhe3EmomJMRAkyWW9E-5" target="1y4Z22NVoQJXuxaL5ozE-3">
          <mxGeometry width="50" height="50" relative="1" as="geometry">
            <mxPoint x="520" y="490" as="sourcePoint" />
            <mxPoint x="570" y="440" as="targetPoint" />
          </mxGeometry>
        </mxCell>
        <mxCell id="1y4Z22NVoQJXuxaL5ozE-6" value="Redigere" style="endArrow=classic;html=1;exitX=0.5;exitY=0.5;exitDx=0;exitDy=0;exitPerimeter=0;" edge="1" parent="1" source="zprhe3EmomJMRAkyWW9E-4" target="1y4Z22NVoQJXuxaL5ozE-3">
          <mxGeometry width="50" height="50" relative="1" as="geometry">
            <mxPoint x="520" y="490" as="sourcePoint" />
            <mxPoint x="570" y="440" as="targetPoint" />
          </mxGeometry>
        </mxCell>
        <mxCell id="1y4Z22NVoQJXuxaL5ozE-8" value="&lt;div&gt;Utleie&lt;/div&gt;" style="ellipse;whiteSpace=wrap;html=1;strokeColor=#000000;" vertex="1" parent="1">
          <mxGeometry x="490" y="690" width="120" height="80" as="geometry" />
        </mxCell>
        <mxCell id="1y4Z22NVoQJXuxaL5ozE-9" value="Lese om " style="endArrow=classic;html=1;entryX=0;entryY=0;entryDx=0;entryDy=0;" edge="1" parent="1" source="zprhe3EmomJMRAkyWW9E-1" target="1y4Z22NVoQJXuxaL5ozE-8">
          <mxGeometry width="50" height="50" relative="1" as="geometry">
            <mxPoint x="520" y="490" as="sourcePoint" />
            <mxPoint x="570" y="440" as="targetPoint" />
          </mxGeometry>
        </mxCell>
        <mxCell id="1y4Z22NVoQJXuxaL5ozE-10" value="&lt;div&gt;Lese om &lt;br&gt;&lt;/div&gt;" style="endArrow=classic;html=1;entryX=0;entryY=0.4;entryDx=0;entryDy=0;entryPerimeter=0;" edge="1" parent="1" source="zprhe3EmomJMRAkyWW9E-5" target="1y4Z22NVoQJXuxaL5ozE-8">
          <mxGeometry width="50" height="50" relative="1" as="geometry">
            <mxPoint x="520" y="490" as="sourcePoint" />
            <mxPoint x="570" y="440" as="targetPoint" />
          </mxGeometry>
        </mxCell>
        <mxCell id="1y4Z22NVoQJXuxaL5ozE-11" value="Redigere" style="endArrow=classic;html=1;exitX=0.025;exitY=0.325;exitDx=0;exitDy=0;exitPerimeter=0;entryX=1;entryY=0.35;entryDx=0;entryDy=0;entryPerimeter=0;" edge="1" parent="1" source="zprhe3EmomJMRAkyWW9E-27" target="1y4Z22NVoQJXuxaL5ozE-8">
          <mxGeometry width="50" height="50" relative="1" as="geometry">
            <mxPoint x="520" y="520" as="sourcePoint" />
            <mxPoint x="570" y="470" as="targetPoint" />
          </mxGeometry>
        </mxCell>
      </root>
    </mxGraphModel>
  </diagram>
</mxfile>
